HIERARCHY
ROOT Hips
{
	OFFSET 0.00000 0.00000 0.00000
	CHANNELS 6 Xposition Yposition Zposition Zrotation Yrotation Xrotation 
	JOINT LHipJoint
	{
		OFFSET 0 0 0
		CHANNELS 3 Zrotation Yrotation Xrotation
		JOINT LeftHip
		{
			OFFSET 1.37590 -1.78394 0.89329
			CHANNELS 3 Zrotation Yrotation Xrotation
			JOINT LeftKnee
			{
				OFFSET 2.47928 -6.81178 0.00000
				CHANNELS 3 Zrotation Yrotation Xrotation
				JOINT LeftAnkle
				{
					OFFSET 2.63345 -7.23535 0.00000
					CHANNELS 3 Zrotation Yrotation Xrotation
					JOINT LeftToe
					{
						OFFSET 0.23938 -0.65768 2.27012
						CHANNELS 3 Zrotation Yrotation Xrotation
						End Site
						{
							OFFSET 0.00000 -0.00000 1.18363
						}
					}
				}
			}
		}
	}
	JOINT RHipJoint
	{
		OFFSET 0 0 0
		CHANNELS 3 Zrotation Yrotation Xrotation
		JOINT RightHip
		{
			OFFSET -1.33617 -1.78394 0.89329
			CHANNELS 3 Zrotation Yrotation Xrotation
			JOINT RightKnee
			{
				OFFSET -2.56922 -7.05888 0.00000
				CHANNELS 3 Zrotation Yrotation Xrotation
				JOINT RightAnkle
				{
					OFFSET -2.56568 -7.04915 0.00000
					CHANNELS 3 Zrotation Yrotation Xrotation
					JOINT RightToe
					{
						OFFSET -0.27533 -0.75646 2.18105
						CHANNELS 3 Zrotation Yrotation Xrotation
						End Site
						{
							OFFSET -0.00000 -0.00000 1.15233
						}
					}
				}
			}
		}
	}
	JOINT lowerback
	{
		OFFSET 0 0 0
		CHANNELS 3 Zrotation Yrotation Xrotation
		JOINT Chest
		{
			OFFSET 0.06190 2.15152 -0.00935
			CHANNELS 3 Zrotation Yrotation Xrotation
			JOINT Chest2
			{
				OFFSET 0.06334 2.15332 0.00872
				CHANNELS 3 Zrotation Yrotation Xrotation
				JOINT lowerneck
				{
					OFFSET 0 0 0
					CHANNELS 3 Zrotation Yrotation Xrotation
					JOINT Neck
					{
						OFFSET -0.04202 1.66908 0.23524
						CHANNELS 3 Zrotation Yrotation Xrotation
						JOINT Head
						{
							OFFSET 0.07510 1.69357 -0.24440
							CHANNELS 3 Zrotation Yrotation Xrotation
							End Site
							{
								OFFSET 0.02556 1.71719 -0.11000
							}
						}
					}
				}
				JOINT LeftCollar
				{
					OFFSET 0 0 0
					CHANNELS 3 Zrotation Yrotation Xrotation
					JOINT LeftShoulder
					{
						OFFSET 3.67168 1.26306 -0.41342
CHANNELS 3 Zrotation Xrotation Yrotation
						JOINT LeftElbow
						{
OFFSET 0 -4.685100 -0.000000
CHANNELS 3 Zrotation Xrotation Yrotation
							JOINT LeftWrist
							{
OFFSET 0 -3.396260 -0.000000
CHANNELS 3 Zrotation Xrotation Yrotation
								JOINT lhand
								{
									OFFSET 0 0 0
CHANNELS 3 Zrotation Xrotation Yrotation
									JOINT LFingers
									{
OFFSET 0 -0.486080 -0.000000
CHANNELS 3 Zrotation Xrotation Yrotation
										End Site
										{
OFFSET 0 -0.391890 -0.000000
										}
									}
								}
								JOINT LThumb
								{
OFFSET 0 0.000000 0.000000
CHANNELS 3 Zrotation Xrotation Yrotation
									End Site
									{
OFFSET 0 -0.397870 0.397870
									}
								}
							}
						}
					}
				}
				JOINT RightCollar
				{
					OFFSET 0 0 0
					CHANNELS 3 Zrotation Yrotation Xrotation
					JOINT RightShoulder
					{
						OFFSET -3.04136 1.42992 -0.76390
CHANNELS 3 Zrotation Xrotation Yrotation
						JOINT RightElbow
						{
OFFSET 0 -5.555760 -0.000000
CHANNELS 3 Zrotation Xrotation Yrotation
							JOINT RightWrist
							{
OFFSET 0 -3.327740 -0.000000
CHANNELS 3 Zrotation Xrotation Yrotation
								JOINT rhand
								{
									OFFSET 0 0 0
CHANNELS 3 Zrotation Xrotation Yrotation
									JOINT RFingers
									{
OFFSET 0 -0.507630 -0.000000
CHANNELS 3 Zrotation Xrotation Yrotation
										End Site
										{
OFFSET 0 -0.409260 -0.000000
										}
									}
								}
								JOINT RThumb
								{
OFFSET 0 0.000000 0.000000
CHANNELS 3 Zrotation Xrotation Yrotation
									End Site
									{
OFFSET 0 -0.415510 0.415510
									}
								}
							}
						}
					}
				}
			}
		}
	}
}
MOTION
Frames: 11
Frame Time: 0.008333333333333333
41.312200 17.871900 6.880600 -88.332200 -84.354100 97.268400 0.000000 0.000000 0.000000 -12.471700 -6.900000 -5.325800 0.232200 3.101100 8.560400 0.219700 0.702700 -9.136400 0.226500 3.063700 8.456100 0.000000 0.000000 0.000000 26.037800 6.430500 -7.301000 -0.495200 -4.511800 12.521200 0.083400 -9.621200 -12.173400 -0.478500 -4.436200 12.307200 4.076600 -0.654200 -6.525700 3.451000 -1.288300 -2.788400 1.175600 -0.708000 0.773800 -7.888900 -4.218000 -17.928300 6.570400 -4.916000 14.215700 2.875500 -2.163000 7.686600 -0.000000 0.000000 0.000000 1.369400 5.315000 -12.054800 15.186200 -24.404800 3.302500 11.588500 25.910400 -17.045400 0.000000 0.000000 0.000000 -7.125000 0.000000 0.000000 -15.442100 46.755700 0.685000 -0.000000 0.000000 0.000000 -8.423900 1.689100 16.876200 -11.337400 -18.803600 -1.883200 -12.978900 15.266300 21.904400 0.000000 0.000000 0.000000 7.125000 0.000000 -0.000000 16.054900 51.693000 -2.704400
41.303348 17.876240 6.868831 -83.553236 -84.357123 92.414950 0.000000 0.000000 0.000000 -12.398846 -6.835002 -5.304616 0.240997 3.159054 8.722022 0.226227 0.215380 -9.063694 0.208186 2.936872 8.103222 0.000000 0.000000 0.000000 26.123202 6.370988 -6.942765 -0.469153 -4.393223 12.185608 0.114278 -10.102646 -12.346518 -0.488897 -4.483330 12.440496 3.921510 -0.846686 -6.557569 3.500563 -1.537555 -2.790450 1.295377 -0.831045 0.792840 -7.912496 -4.184045 -17.780973 6.523069 -4.862698 14.147630 2.871270 -2.146108 7.634133 0.000000 0.000000 0.000000 1.327438 5.425127 -11.898647 15.185742 -24.404260 3.302307 11.555540 25.940964 -17.099344 0.000000 0.000000 0.000000 -7.125000 0.000000 0.000000 -15.490936 46.804126 0.706178 0.000000 0.000000 0.000000 -8.472793 1.774961 16.746218 -11.355889 -18.831728 -1.889177 -12.935444 15.098386 21.542965 0.000000 0.000000 0.000000 7.125000 0.000000 0.000000 15.936463 51.334787 -2.541197
41.305715 17.876459 6.867662 -83.665875 -84.343646 92.566606 0.000000 0.000000 0.000000 -12.363755 -6.883911 -5.321818 0.238016 3.139654 8.667807 0.223316 0.257817 -9.022179 0.224075 3.047143 8.410197 0.000000 0.000000 0.000000 26.142423 6.433777 -6.957274 -0.467280 -4.384643 12.161307 0.114922 -10.115447 -12.354433 -0.492490 -4.499525 12.486459 4.027624 -0.794127 -6.365418 3.427179 -1.454583 -2.923876 1.171512 -0.795284 0.544283 -7.885278 -4.217326 -17.753850 6.508587 -4.919384 14.224767 2.855568 -2.173956 7.658210 0.000000 0.000000 0.000000 1.435207 5.599459 -11.907449 15.170159 -24.382589 3.295892 11.505287 25.990866 -17.059933 0.000000 0.000000 0.000000 -7.125000 0.000000 0.000000 -15.523061 46.759131 0.690115 0.000000 0.000000 0.000000 -8.388494 2.029224 16.601776 -11.435365 -18.952474 -1.914970 -12.866920 14.947450 21.542969 0.000000 0.000000 0.000000 7.125000 0.000000 0.000000 16.002398 51.323505 -2.547787
41.310545 17.876072 6.870169 -85.055645 -84.338131 94.010291 0.000000 0.000000 0.000000 -12.368820 -6.891138 -5.378394 0.239776 3.151193 8.699854 0.225883 0.364893 -9.116067 0.220518 3.022750 8.342106 0.000000 0.000000 0.000000 26.126740 6.486726 -7.069193 -0.471951 -4.406074 12.222048 0.106532 -9.976947 -12.291056 -0.494014 -4.506205 12.505472 4.032232 -0.766834 -6.316089 3.457723 -1.416376 -2.928852 1.203892 -0.776852 0.512581 -7.845975 -4.196475 -17.882629 6.360084 -4.861572 14.224672 2.805417 -2.155233 7.670767 0.000000 0.000000 0.000000 1.358016 5.565912 -11.741484 15.135712 -24.334843 3.281694 11.533424 26.090904 -17.025679 0.000000 0.000000 0.000000 -7.125000 0.000000 0.000000 -15.485501 46.729399 0.676749 0.000000 0.000000 0.000000 -8.482248 1.987798 16.586046 -11.492561 -19.039350 -1.933544 -12.909135 14.894788 21.694279 0.000000 0.000000 0.000000 7.125000 0.000000 0.000000 16.028491 51.477458 -2.613543
41.313827 17.876180 6.871115 -85.875779 -84.332602 94.869349 0.000000 0.000000 0.000000 -12.365998 -6.900278 -5.415000 0.240422 3.155292 8.711374 0.226880 0.433733 -9.163868 0.219993 3.019534 8.333091 0.000000 0.000000 0.000000 26.120916 6.530949 -7.127162 -0.473232 -4.411863 12.238414 0.102241 -9.902890 -12.254542 -0.496491 -4.517580 12.537485 4.031641 -0.754245 -6.228522 3.479227 -1.393460 -2.963376 1.229929 -0.767141 0.429061 -7.824938 -4.178619 -17.985789 6.251498 -4.815150 14.263418 2.770563 -2.140186 7.694270 0.000000 0.000000 0.000000 1.301932 5.596440 -11.603688 15.111272 -24.300968 3.271618 11.536978 26.167522 -17.015284 0.000000 0.000000 0.000000 -7.125000 0.000000 0.000000 -15.478609 46.719623 0.672590 0.000000 0.000000 0.000000 -8.557455 2.016672 16.574261 -11.558029 -19.138530 -1.955011 -12.931580 14.802834 21.774953 0.000000 0.000000 0.000000 7.125000 0.000000 0.000000 16.042675 51.559423 -2.648768
41.317186 17.876100 6.872494 -86.919932 -84.326923 95.953317 0.000000 0.000000 0.000000 -12.367141 -6.918609 -5.445681 0.239606 3.150186 8.697198 0.226504 0.538310 -9.201515 0.221941 3.032540 8.369285 0.000000 0.000000 0.000000 26.110995 6.576707 -7.194627 -0.475292 -4.421413 12.265347 0.096625 -9.807516 -12.210245 -0.499187 -4.529540 12.571382 4.039487 -0.732830 -6.119906 3.495170 -1.357145 -3.019115 1.246903 -0.751510 0.311623 -7.808683 -4.159505 -18.059313 6.153736 -4.771116 14.316543 2.740209 -2.126172 7.718151 0.000000 0.000000 0.000000 1.252584 5.664156 -11.480742 15.085913 -24.265658 3.261147 11.537300 26.243765 -17.013768 0.000000 0.000000 0.000000 -7.125000 0.000000 0.000000 -15.477889 46.718268 0.671987 0.000000 0.000000 0.000000 -8.627916 2.084323 16.587689 -11.637463 -19.258713 -1.981122 -12.939456 14.701715 21.871704 0.000000 0.000000 0.000000 7.125000 0.000000 0.000000 16.078363 51.654700 -2.693125
41.319907 17.876100 6.873396 -87.846623 -84.322283 96.913672 0.000000 0.000000 0.000000 -12.368217 -6.937364 -5.470591 0.238148 3.140835 8.671175 0.225328 0.639381 -9.221051 0.223334 3.042061 8.395971 0.000000 0.000000 0.000000 26.102501 6.617586 -7.244944 -0.476476 -4.426741 12.280406 0.091962 -9.725745 -12.169531 -0.501648 -4.540727 12.603187 4.034811 -0.719556 -6.014802 3.515184 -1.331278 -3.074489 1.274332 -0.740987 0.196816 -7.795729 -4.135492 -18.127617 6.062491 -4.721632 14.377260 2.713354 -2.109433 7.743591 0.000000 0.000000 0.000000 1.200422 5.740804 -11.369330 15.059923 -24.229558 3.250518 11.533969 26.308484 -17.016104 0.000000 0.000000 0.000000 -7.125000 0.000000 0.000000 -15.481734 46.720048 0.672862 0.000000 0.000000 0.000000 -8.704062 2.153240 16.625072 -11.725716 -19.392050 -2.010280 -12.936340 14.571219 21.923842 0.000000 0.000000 0.000000 7.125000 0.000000 0.000000 16.104773 51.704763 -2.717895
41.321801 17.876218 6.873563 -88.637281 -84.318279 97.733217 0.000000 0.000000 0.000000 -12.366705 -6.942439 -5.496449 0.237873 3.138633 8.664878 0.224955 0.710174 -9.244970 0.223991 3.046363 8.407808 0.000000 0.000000 0.000000 26.097754 6.656318 -7.277761 -0.476582 -4.427490 12.282579 0.088516 -9.661319 -12.134462 -0.504129 -4.551588 12.633944 4.024104 -0.710439 -5.920926 3.532516 -1.311258 -3.130142 1.301667 -0.733149 0.088103 -7.781859 -4.109628 -18.174686 5.983715 -4.673834 14.437573 2.690513 -2.092762 7.765733 0.000000 0.000000 0.000000 1.158155 5.827007 -11.282156 15.032236 -24.191011 3.239138 11.524738 26.361107 -17.009751 0.000000 0.000000 0.000000 -7.125000 0.000000 0.000000 -15.487966 46.712787 0.670304 0.000000 0.000000 0.000000 -8.773657 2.228075 16.672648 -11.821743 -19.536705 -2.042260 -12.900307 14.405773 21.910206 0.000000 0.000000 0.000000 7.125000 0.000000 0.000000 16.133359 51.685583 -2.715188
41.322800 17.876517 6.872653 -89.195939 -84.315217 98.314844 0.000000 0.000000 0.000000 -12.359284 -6.932189 -5.524341 0.239186 3.147533 8.689696 0.226047 0.734967 -9.278072 0.224056 3.047094 8.409947 0.000000 0.000000 0.000000 26.099527 6.692966 -7.288004 -0.475580 -4.422689 12.268931 0.086817 -9.626017 -12.111722 -0.506103 -4.560408 12.658755 4.010801 -0.706556 -5.833555 3.543780 -1.298289 -3.185577 1.323771 -0.728755 -0.017095 -7.761725 -4.084951 -18.212848 5.915867 -4.632507 14.502801 2.669589 -2.078047 7.788635 0.000000 0.000000 0.000000 1.133985 5.922341 -11.235576 15.005401 -24.153641 3.228162 11.515208 26.395783 -16.987204 0.000000 0.000000 0.000000 -7.125000 0.000000 0.000000 -15.488803 46.689526 0.661298 0.000000 0.000000 0.000000 -8.830028 2.303092 16.718778 -11.921675 -19.687072 -2.075835 -12.866090 14.233695 21.903660 0.000000 0.000000 0.000000 7.125000 0.000000 0.000000 16.163467 51.673469 -2.715609
41.322662 17.876907 6.870628 -89.424091 -84.314228 98.558489 0.000000 0.000000 0.000000 -12.345181 -6.907370 -5.550765 0.241893 3.165128 8.738764 0.228555 0.708478 -9.315525 0.222507 3.036320 8.379881 0.000000 0.000000 0.000000 26.109550 6.725368 -7.269420 -0.472852 -4.410350 12.233984 0.087345 -9.627648 -12.102943 -0.508303 -4.570133 12.686441 3.982393 -0.715182 -5.767260 3.557884 -1.303127 -3.222596 1.355592 -0.732262 -0.091240 -7.732591 -4.063596 -18.277779 5.845479 -4.595322 14.567440 2.645559 -2.064550 7.816007 0.000000 0.000000 0.000000 1.113685 5.991806 -11.204982 14.976511 -24.113374 3.216319 11.510445 26.427610 -16.945720 0.000000 0.000000 0.000000 -7.125000 0.000000 0.000000 -15.478760 46.648403 0.644765 0.000000 0.000000 0.000000 -8.885927 2.345617 16.772107 -12.022197 -19.837911 -2.109864 -12.839939 14.048636 21.862864 0.000000 0.000000 0.000000 7.125000 0.000000 0.000000 16.170387 51.629582 -2.699133
41.322106 17.877395 6.868222 -89.626933 -84.312712 98.773927 0.000000 0.000000 0.000000 -12.329341 -6.854326 -5.583202 0.246950 3.197975 8.830492 0.233352 0.644545 -9.381448 0.217549 3.002830 8.286617 0.000000 0.000000 0.000000 26.122877 6.757017 -7.245428 -0.470125 -4.397715 12.198323 0.088192 -9.634526 -12.098132 -0.510974 -4.581888 12.719782 3.963541 -0.714532 -5.713567 3.561201 -1.298865 -3.160816 1.369822 -0.728060 -0.056785 -7.681111 -4.084301 -18.740446 5.784113 -4.595203 14.738950 2.612811 -2.059623 7.949602 0.000000 0.000000 0.000000 1.117998 5.834621 -11.198509 14.928484 -24.046375 3.196697 11.513950 26.478486 -16.891406 0.000000 0.000000 0.000000 -7.125000 0.000000 0.000000 -15.457019 46.595887 0.623300 0.000000 0.000000 0.000000 -8.920150 2.167978 16.756437 -12.107772 -19.966110 -2.138952 -12.817465 13.891621 21.831854 0.000000 0.000000 0.000000 7.125000 0.000000 0.000000 16.178056 51.595675 -2.686704
